<?xml version="1.0" encoding="UTF-8"?>
<!DOCTYPE svg PUBLIC "-//W3C//DTD SVG 1.1//EN" "http://www.w3.org/Graphics/SVG/1.1/DTD/svg11.dtd">
<svg xmlns="http://www.w3.org/2000/svg" version="1.1" width="256px" height="256px" style="shape-rendering:geometricPrecision; text-rendering:geometricPrecision; image-rendering:optimizeQuality; fill-rule:evenodd; clip-rule:evenodd" xmlns:xlink="http://www.w3.org/1999/xlink">
<g><path style="opacity:0.868" fill="#000000" d="M 32.5,50.5 C 41.3311,49.9197 49.9978,50.7531 58.5,53C 66.8266,56.811 71.3266,63.311 72,72.5C 72.3333,85.5 72.6667,98.5 73,111.5C 74.0284,115.054 75.195,118.554 76.5,122C 76.5607,123.711 75.8941,125.044 74.5,126C 72.0829,127.626 69.5829,129.126 67,130.5C 63.0312,128.19 60.0312,124.857 58,120.5C 46.0679,132.483 32.5679,134.649 17.5,127C 9.9769,120.07 7.4769,111.57 10,101.5C 13.3435,92.1568 19.8435,86.3235 29.5,84C 38.2788,83.0387 46.9455,83.5387 55.5,85.5C 59.3922,71.5869 54.2256,64.2535 40,63.5C 31.867,64.3249 24.0337,66.3249 16.5,69.5C 15.914,69.2907 15.414,68.9574 15,68.5C 14.3333,64.8333 14.3333,61.1667 15,57.5C 20.5515,54.2651 26.3848,51.9317 32.5,50.5 Z M 34.5,95.5 C 41.8681,95.3169 49.2015,95.6502 56.5,96.5C 58.0019,110.835 51.5019,118.168 37,118.5C 26.8524,117.006 23.5191,111.339 27,101.5C 29.109,98.8782 31.609,96.8782 34.5,95.5 Z"/></g>
<g><path style="opacity:0.862" fill="#000000" d="M 208.5,50.5 C 217.647,49.9543 226.647,50.7877 235.5,53C 238.057,53.6853 239.891,55.1853 241,57.5C 241.784,60.7603 241.617,63.9269 240.5,67C 238.833,67.6667 237.167,67.6667 235.5,67C 228.144,63.7829 220.478,62.7829 212.5,64C 207.59,64.7427 204.923,67.576 204.5,72.5C 204.94,75.2138 206.274,77.3805 208.5,79C 217.434,82.5333 226.434,85.8666 235.5,89C 245.758,96.7288 248.258,106.562 243,118.5C 238.657,125.263 232.49,129.429 224.5,131C 213.11,132.55 202.11,131.217 191.5,127C 187.87,123.95 186.703,120.117 188,115.5C 188.674,114.422 189.674,113.755 191,113.5C 198.228,116.348 205.728,118.015 213.5,118.5C 219.701,118.999 224.868,116.999 229,112.5C 230.227,108.409 229.394,104.909 226.5,102C 217.449,98.82 208.449,95.4867 199.5,92C 185.789,80.7002 185.122,68.7002 197.5,56C 201.017,53.6738 204.683,51.8405 208.5,50.5 Z"/></g>
<g><path style="opacity:0.869" fill="#000000" d="M 79.5,52.5 C 84.1785,52.3342 88.8452,52.5008 93.5,53C 94,53.5 94.5,54 95,54.5C 99.6667,72.5 104.333,90.5 109,108.5C 113.808,90.2703 118.474,71.937 123,53.5C 128.082,52.363 133.249,52.1963 138.5,53C 143.961,71.9574 148.794,91.124 153,110.5C 157.691,91.735 162.691,73.0683 168,54.5C 168.5,54 169,53.5 169.5,53C 173.833,52.3333 178.167,52.3333 182.5,53C 183.081,53.8926 183.415,54.8926 183.5,56C 176.401,79.9641 168.901,103.797 161,127.5C 160.5,128 160,128.5 159.5,129C 154.833,129.667 150.167,129.667 145.5,129C 145,128.5 144.5,128 144,127.5C 139.667,109.5 135.333,91.5 131,73.5C 126.799,91.9722 122.132,110.306 117,128.5C 112.252,129.635 107.419,129.802 102.5,129C 101.667,128.167 100.833,127.333 100,126.5C 92.631,102.727 85.4644,78.8932 78.5,55C 78.7432,54.0979 79.0766,53.2646 79.5,52.5 Z"/></g>
<g><path style="opacity:0.828" fill="#000000" d="M 255.5,148.5 C 255.5,154.167 255.5,159.833 255.5,165.5C 252.813,176.697 247.146,186.197 238.5,194C 237.207,194.49 235.873,194.657 234.5,194.5C 236.679,185.789 239.179,177.122 242,168.5C 242.667,165.5 242.667,162.5 242,159.5C 237.688,157.954 233.188,157.287 228.5,157.5C 221.495,158.062 214.495,158.229 207.5,158C 206.532,155.263 207.532,153.263 210.5,152C 225.044,144.904 240.044,143.737 255.5,148.5 Z"/></g>
<g><path style="opacity:0.878" fill="#000000" d="M -0.5,150.5 C 0.873441,150.343 2.20677,150.51 3.5,151C 76.5128,190.614 151.679,195.114 229,164.5C 234.368,166.685 234.868,169.852 230.5,174C 193.128,198.259 152.128,208.259 107.5,204C 66.3252,199.459 30.3252,183.626 -0.5,156.5C -0.5,154.5 -0.5,152.5 -0.5,150.5 Z"/></g>
</svg>
