<?xml version="1.0" encoding="UTF-8"?>
<!DOCTYPE svg PUBLIC "-//W3C//DTD SVG 1.1//EN" "http://www.w3.org/Graphics/SVG/1.1/DTD/svg11.dtd">
<svg xmlns="http://www.w3.org/2000/svg" version="1.1" width="256px" height="256px" style="shape-rendering:geometricPrecision; text-rendering:geometricPrecision; image-rendering:optimizeQuality; fill-rule:evenodd; clip-rule:evenodd" xmlns:xlink="http://www.w3.org/1999/xlink">
<g><path style="opacity:0.973" fill="#000000" d="M 13.5,-0.5 C 89.5,-0.5 165.5,-0.5 241.5,-0.5C 234.604,76.5201 227.438,153.52 220,230.5C 190.1,238.931 160.266,247.264 130.5,255.5C 128.5,255.5 126.5,255.5 124.5,255.5C 94.7335,247.264 64.9002,238.931 35,230.5C 27.5624,153.52 20.3958,76.5201 13.5,-0.5 Z M 56.5,47.5 C 103.5,47.5 150.5,47.5 197.5,47.5C 196.667,55.8252 195.834,64.1585 195,72.5C 194.692,73.3081 194.192,73.9747 193.5,74.5C 170.925,83.8556 148.591,93.6889 126.5,104C 148.497,104.5 170.497,104.667 192.5,104.5C 189.891,132.479 187.391,160.479 185,188.5C 184.5,189 184,189.5 183.5,190C 164.739,195.198 146.072,200.698 127.5,206.5C 108.244,200.52 88.9105,194.853 69.5,189.5C 68.3193,175.179 67.3193,160.846 66.5,146.5C 75.5246,146.168 84.5246,146.502 93.5,147.5C 94.6063,154.774 95.273,162.107 95.5,169.5C 105.935,172.067 116.435,174.4 127,176.5C 137.398,174.15 147.732,171.484 158,168.5C 158.945,168.095 159.612,167.428 160,166.5C 160.658,154.47 161.492,142.47 162.5,130.5C 129.832,130.667 97.165,130.5 64.5,130C 63.5,121.667 62.5,113.333 61.5,105C 84.6351,94.6188 107.968,84.6188 131.5,75C 107.502,74.5 83.5023,74.3334 59.5,74.5C 58.09,65.5522 57.09,56.5522 56.5,47.5 Z"/></g>
</svg>
