<?xml version="1.0" encoding="UTF-8"?>
<!DOCTYPE svg PUBLIC "-//W3C//DTD SVG 1.1//EN" "http://www.w3.org/Graphics/SVG/1.1/DTD/svg11.dtd">
<svg xmlns="http://www.w3.org/2000/svg" version="1.1" width="256px" height="256px" style="shape-rendering:geometricPrecision; text-rendering:geometricPrecision; image-rendering:optimizeQuality; fill-rule:evenodd; clip-rule:evenodd" xmlns:xlink="http://www.w3.org/1999/xlink">
<g><path style="opacity:0.845" fill="#000000" d="M 116.5,50.5 C 124.174,50.3336 131.841,50.5003 139.5,51C 140.643,57.4184 140.81,63.9184 140,70.5C 139.5,71 139,71.5 138.5,72C 131.5,72.6667 124.5,72.6667 117.5,72C 116.52,64.9213 116.187,57.7546 116.5,50.5 Z"/></g>
<g><path style="opacity:0.859" fill="#000000" d="M 64.5,74.5 C 72.1667,74.5 79.8333,74.5 87.5,74.5C 87.6663,81.5079 87.4996,88.5079 87,95.5C 79.5579,96.813 72.0579,96.813 64.5,95.5C 63.2036,88.5005 63.2036,81.5005 64.5,74.5 Z"/></g>
<g><path style="opacity:0.854" fill="#000000" d="M 90.5,74.5 C 98.1739,74.3336 105.841,74.5003 113.5,75C 114.819,81.8032 114.819,88.6365 113.5,95.5C 106.189,96.6646 98.856,96.8313 91.5,96C 90.5201,88.9213 90.1868,81.7546 90.5,74.5 Z"/></g>
<g><path style="opacity:0.854" fill="#000000" d="M 116.5,74.5 C 124.174,74.3336 131.841,74.5003 139.5,75C 140.819,81.8032 140.819,88.6365 139.5,95.5C 132.189,96.6646 124.856,96.8313 117.5,96C 116.52,88.9213 116.187,81.7546 116.5,74.5 Z"/></g>
<g><path style="opacity:0.962" fill="#000000" d="M 186.5,79.5 C 196.913,84.0846 203.58,91.9179 206.5,103C 213.23,103.17 219.897,103.837 226.5,105C 235.322,107.443 236.822,112.277 231,119.5C 222.905,128.214 212.905,132.88 201,133.5C 182.223,181.162 147.056,204.829 95.5,204.5C 76.7502,205.771 59.4168,201.605 43.5,192C 33.1971,182.235 26.3638,170.402 23,156.5C 21.3546,148.4 20.188,140.233 19.5,132C 19.9114,129.097 20.9114,126.431 22.5,124C 74.1208,122.986 125.787,121.986 177.5,121C 179.246,120.529 180.913,119.862 182.5,119C 176.304,105.128 177.638,91.9609 186.5,79.5 Z"/></g>
<g><path style="opacity:0.857" fill="#000000" d="M 38.5,98.5 C 46.1667,98.5 53.8333,98.5 61.5,98.5C 61.6663,105.508 61.4996,112.508 61,119.5C 53.6667,120.833 46.3333,120.833 39,119.5C 37.1708,112.559 37.0042,105.559 38.5,98.5 Z"/></g>
<g><path style="opacity:0.855" fill="#000000" d="M 64.5,98.5 C 72.1667,98.5 79.8333,98.5 87.5,98.5C 87.6663,105.508 87.4996,112.508 87,119.5C 79.5579,120.813 72.0579,120.813 64.5,119.5C 63.2036,112.501 63.2036,105.501 64.5,98.5 Z"/></g>
<g><path style="opacity:0.849" fill="#000000" d="M 90.5,98.5 C 98.1739,98.3336 105.841,98.5003 113.5,99C 114.819,105.803 114.819,112.637 113.5,119.5C 106.189,120.665 98.856,120.831 91.5,120C 90.5201,112.921 90.1868,105.755 90.5,98.5 Z"/></g>
<g><path style="opacity:0.85" fill="#000000" d="M 116.5,98.5 C 124.174,98.3336 131.841,98.5003 139.5,99C 140.819,105.803 140.819,112.637 139.5,119.5C 132.189,120.665 124.856,120.831 117.5,120C 116.52,112.921 116.187,105.755 116.5,98.5 Z"/></g>
<g><path style="opacity:0.849" fill="#000000" d="M 143.5,98.5 C 150.841,98.3337 158.174,98.5003 165.5,99C 166.645,105.752 166.811,112.586 166,119.5C 158.58,120.647 151.08,120.813 143.5,120C 142.183,112.834 142.183,105.667 143.5,98.5 Z"/></g>
</svg>
