<?xml version="1.0" encoding="UTF-8"?>
<!DOCTYPE svg PUBLIC "-//W3C//DTD SVG 1.1//EN" "http://www.w3.org/Graphics/SVG/1.1/DTD/svg11.dtd">
<svg xmlns="http://www.w3.org/2000/svg" version="1.1" width="256px" height="256px" style="shape-rendering:geometricPrecision; text-rendering:geometricPrecision; image-rendering:optimizeQuality; fill-rule:evenodd; clip-rule:evenodd" xmlns:xlink="http://www.w3.org/1999/xlink">
<g><path style="opacity:0.97" fill="#000000" d="M 255.5,114.5 C 255.5,125.167 255.5,135.833 255.5,146.5C 249.133,188.026 228.133,219.859 192.5,242C 185.405,245.881 178.071,249.215 170.5,252C 167.5,252.667 164.5,252.667 161.5,252C 160.107,250.829 159.273,249.329 159,247.5C 158.667,232.5 158.333,217.5 158,202.5C 157.087,196.673 154.587,191.673 150.5,187.5C 164.671,185.722 177.671,180.888 189.5,173C 199.359,164.787 205.192,154.287 207,141.5C 211.703,122.002 207.869,104.502 195.5,89C 199.762,77.6921 199.095,66.6921 193.5,56C 190.442,55.5423 187.442,55.8756 184.5,57C 175.508,60.2463 167.008,64.413 159,69.5C 138,62.8333 117,62.8333 96,69.5C 86.1915,62.9304 75.5248,58.2637 64,55.5C 62.2894,55.4393 60.956,56.1059 60,57.5C 55.76,67.9674 55.5934,78.4674 59.5,89C 45.8245,107.331 42.6579,127.497 50,149.5C 54.9847,164.486 64.818,174.986 79.5,181C 87.7227,183.639 96.056,185.806 104.5,187.5C 100.079,192.592 97.079,198.425 95.5,205C 78.405,212.325 65.5716,207.825 57,191.5C 51.1046,184.005 43.6046,180.671 34.5,181.5C 34.3505,182.552 34.5172,183.552 35,184.5C 38.3333,187.167 41.6667,189.833 45,192.5C 49.1888,198.877 52.8554,205.544 56,212.5C 60.4672,218.151 66.3005,221.317 73.5,222C 81.2022,222.731 88.8689,222.564 96.5,221.5C 96.6664,230.506 96.4998,239.506 96,248.5C 95.5348,249.931 94.7014,251.097 93.5,252C 90.5,252.667 87.5,252.667 84.5,252C 36.553,232.592 8.21967,197.425 -0.5,146.5C -0.5,135.833 -0.5,125.167 -0.5,114.5C 9.92538,57.2351 43.2587,20.7351 99.5,5C 162.264,-4.884 209.764,17.2827 242,71.5C 248.654,85.2876 253.154,99.621 255.5,114.5 Z"/></g>
</svg>
