<?xml version="1.0" encoding="UTF-8"?>
<!DOCTYPE svg PUBLIC "-//W3C//DTD SVG 1.1//EN" "http://www.w3.org/Graphics/SVG/1.1/DTD/svg11.dtd">
<svg xmlns="http://www.w3.org/2000/svg" version="1.1" width="256px" height="256px" style="shape-rendering:geometricPrecision; text-rendering:geometricPrecision; image-rendering:optimizeQuality; fill-rule:evenodd; clip-rule:evenodd" xmlns:xlink="http://www.w3.org/1999/xlink">
<g><path style="opacity:0.96" fill="#000000" d="M 16.5,-0.5 C 92.1667,-0.5 167.833,-0.5 243.5,-0.5C 236.612,75.8174 229.779,152.151 223,228.5C 221.764,230.538 219.931,231.705 217.5,232C 189.908,239.37 162.574,247.203 135.5,255.5C 131.833,255.5 128.167,255.5 124.5,255.5C 95.3774,246.797 66.044,238.464 36.5,230.5C 29.8885,153.495 23.2218,76.4953 16.5,-0.5 Z M 60.5,47.5 C 106.833,47.5 153.167,47.5 199.5,47.5C 198.653,56.1511 197.986,64.8177 197.5,73.5C 161.5,73.5 125.5,73.5 89.5,73.5C 90.1114,83.8372 90.7781,94.1705 91.5,104.5C 125.833,104.5 160.167,104.5 194.5,104.5C 192.013,133.187 189.347,161.854 186.5,190.5C 167.396,195.026 148.396,200.026 129.5,205.5C 110.833,200.333 92.1667,195.167 73.5,190C 71.1771,175.647 69.8438,161.147 69.5,146.5C 78.1667,146.5 86.8333,146.5 95.5,146.5C 95.8069,154.208 96.4735,161.875 97.5,169.5C 108.108,172.369 118.775,175.035 129.5,177.5C 139.952,175.304 150.285,172.637 160.5,169.5C 161.192,168.975 161.692,168.308 162,167.5C 163.234,155.498 164.4,143.498 165.5,131.5C 132.833,131.5 100.167,131.5 67.5,131.5C 64.9262,103.521 62.5928,75.521 60.5,47.5 Z"/></g>
</svg>
