<?xml version="1.0" encoding="UTF-8"?>
<!DOCTYPE svg PUBLIC "-//W3C//DTD SVG 1.1//EN" "http://www.w3.org/Graphics/SVG/1.1/DTD/svg11.dtd">
<svg xmlns="http://www.w3.org/2000/svg" version="1.1" width="256px" height="256px" style="shape-rendering:geometricPrecision; text-rendering:geometricPrecision; image-rendering:optimizeQuality; fill-rule:evenodd; clip-rule:evenodd" xmlns:xlink="http://www.w3.org/1999/xlink">
<g><path style="opacity:0.985" fill="#000000" d="M -0.5,-0.5 C 84.8333,-0.5 170.167,-0.5 255.5,-0.5C 255.5,84.8333 255.5,170.167 255.5,255.5C 170.167,255.5 84.8333,255.5 -0.5,255.5C -0.5,170.167 -0.5,84.8333 -0.5,-0.5 Z M 186.5,116.5 C 203.703,113.943 217.036,119.777 226.5,134C 220.913,137.71 215.413,141.543 210,145.5C 204.038,135.735 195.872,133.235 185.5,138C 180.105,144.632 180.439,150.966 186.5,157C 198.468,162.432 210.135,168.432 221.5,175C 232.292,183.706 236.125,194.873 233,208.5C 230.776,219.057 224.609,226.224 214.5,230C 197.029,235.92 180.363,234.253 164.5,225C 159.751,220.922 155.751,216.255 152.5,211C 158.336,207.248 164.336,203.748 170.5,200.5C 179.868,214.232 192.201,217.732 207.5,211C 213.125,203.98 212.792,197.314 206.5,191C 193.697,185.433 181.364,179.099 169.5,172C 158.976,160.229 156.809,147.062 163,132.5C 168.825,124.02 176.658,118.686 186.5,116.5 Z M 115.5,118.5 C 122.833,118.5 130.167,118.5 137.5,118.5C 137.963,150.208 137.463,181.875 136,213.5C 130.341,228.3 119.507,235.3 103.5,234.5C 87.6204,235.234 75.9537,228.734 68.5,215C 73.791,210.682 79.4577,206.849 85.5,203.5C 88.034,207.712 91.3673,211.212 95.5,214C 99.8333,214.667 104.167,214.667 108.5,214C 111,212.833 112.833,211 114,208.5C 115.477,178.563 115.977,148.563 115.5,118.5 Z"/></g>
</svg>
