<?xml version="1.0" encoding="utf-8"?>
<!-- Generator: Adobe Illustrator 26.3.1, SVG Export Plug-In . SVG Version: 6.00 Build 0)  -->
<svg version="1.1" id="Capa_1" xmlns="http://www.w3.org/2000/svg" xmlns:xlink="http://www.w3.org/1999/xlink" x="0px" y="0px"
	 viewBox="0 0 907.4 206.1" style="enable-background:new 0 0 907.4 206.1;" xml:space="preserve">
<style type="text/css">
	.st0{fill:#00808A;}
</style>
<g>
	<path d="M480.8,149.8c-0.2-0.2-0.4-0.7-0.1-1l4.5-5.2c0.2-0.3,0.6-0.3,0.9-0.1c2.7,2.2,6.3,4.2,10.7,4.2c4.2,0,6.6-2,6.6-4.8
		c0-2.4-1.4-3.9-6.3-4.5L495,138c-8.3-1.1-12.9-5-12.9-12.2c0-7.5,5.6-12.4,14.4-12.4c5.4,0,10.4,1.6,13.8,4.2
		c0.4,0.2,0.4,0.5,0.1,0.9l-3.6,5.4c-0.2,0.3-0.5,0.4-0.8,0.2c-3.1-2-6.1-3.1-9.5-3.1c-3.6,0-5.4,1.9-5.4,4.4c0,2.3,1.7,3.8,6.3,4.5
		l2.2,0.3c8.4,1.1,12.8,5,12.8,12.3c0,7.4-5.4,12.8-16,12.8C490.1,155.4,483.9,152.9,480.8,149.8z"/>
	<path d="M527.4,114.6c0.1-0.4,0.4-0.6,0.8-0.6h7.5c0.4,0,0.7,0.2,0.8,0.6l13.8,39.5c0.1,0.4,0,0.6-0.4,0.6h-7.8
		c-0.4,0-0.7-0.2-0.8-0.6L539,147h-14.2l-2.3,7.1c-0.1,0.4-0.4,0.6-0.8,0.6h-7.8c-0.4,0-0.5-0.2-0.4-0.6L527.4,114.6z M536.6,139.5
		l-4.6-14.2h-0.2l-4.6,14.2H536.6z"/>
	<path d="M553.5,114.6c0-0.4,0.2-0.6,0.6-0.6h7.2c0.4,0,0.8,0.2,1,0.6l14.4,25.6h0.3v-25.6c0-0.4,0.2-0.6,0.6-0.6h6.8
		c0.4,0,0.6,0.2,0.6,0.6v39.5c0,0.4-0.2,0.6-0.6,0.6h-7.1c-0.5,0-0.8-0.2-1-0.6l-14.4-25.6h-0.3v25.6c0,0.4-0.2,0.6-0.6,0.6h-6.8
		c-0.4,0-0.6-0.2-0.6-0.6L553.5,114.6L553.5,114.6z"/>
	<path d="M600.2,154.7c-0.4,0-0.6-0.2-0.6-0.6v-31.9c0-0.2-0.1-0.4-0.4-0.4H589c-0.4,0-0.6-0.2-0.6-0.6v-6.6c0-0.4,0.2-0.6,0.6-0.6
		h30.1c0.4,0,0.6,0.2,0.6,0.6v6.6c0,0.4-0.2,0.6-0.6,0.6h-10.3c-0.2,0-0.4,0.1-0.4,0.4v31.9c0,0.4-0.2,0.6-0.6,0.6H600.2z"/>
	<path d="M622.1,145.5c-0.9-2.8-1.1-5.1-1.1-11.1s0.2-8.3,1.1-11.1c2.1-6.6,7.7-9.9,14.8-9.9s12.7,3.3,14.8,9.9
		c0.9,2.8,1.1,5.1,1.1,11.1s-0.2,8.3-1.1,11.1c-2.1,6.6-7.7,9.9-14.8,9.9S624.2,152.1,622.1,145.5z M643.4,143.1
		c0.5-1.4,0.7-3.4,0.7-8.7c0-5.3-0.2-7.3-0.7-8.7c-0.9-2.8-3.1-4.5-6.4-4.5c-3.4,0-5.5,1.7-6.4,4.5c-0.5,1.4-0.7,3.4-0.7,8.7
		c0,5.3,0.2,7.3,0.7,8.7c0.9,2.8,3,4.5,6.4,4.5C640.3,147.6,642.5,146,643.4,143.1z"/>
	<path d="M670.9,114.6c0-0.4,0.2-0.6,0.6-0.6h15.1c7.1,0,12.1,3.1,14.1,9.2c0.7,2.3,1.1,4.5,1.1,11.2s-0.4,8.9-1.1,11.2
		c-2,6.1-6.9,9.2-14.1,9.2h-15.1c-0.4,0-0.6-0.2-0.6-0.6V114.6z M680.1,146.9h4.6c4.1,0,6.5-1.2,7.5-4.5c0.4-1.2,0.7-2.8,0.7-8
		s-0.2-6.8-0.7-8c-1-3.3-3.5-4.5-7.5-4.5h-4.6c-0.2,0-0.4,0.1-0.4,0.4v24.3C679.7,146.8,679.8,146.9,680.1,146.9z"/>
	<path d="M707.2,145.5c-0.9-2.8-1.1-5.1-1.1-11.1s0.2-8.3,1.1-11.1c2.1-6.6,7.7-9.9,14.8-9.9c7.1,0,12.7,3.3,14.8,9.9
		c0.9,2.8,1.1,5.1,1.1,11.1s-0.2,8.3-1.1,11.1c-2.1,6.6-7.7,9.9-14.8,9.9C714.9,155.4,709.3,152.1,707.2,145.5z M728.5,143.1
		c0.5-1.4,0.7-3.4,0.7-8.7c0-5.3-0.2-7.3-0.7-8.7c-0.9-2.8-3.1-4.5-6.4-4.5c-3.4,0-5.5,1.7-6.4,4.5c-0.5,1.4-0.7,3.4-0.7,8.7
		c0,5.3,0.2,7.3,0.7,8.7c0.9,2.8,3,4.5,6.4,4.5C725.4,147.6,727.6,146,728.5,143.1z"/>
	<path d="M743.3,114.6c0-0.4,0.2-0.6,0.6-0.6h7.1c0.5,0,0.8,0.2,1,0.6l10.3,23.2h0.2l10.1-23.2c0.2-0.4,0.5-0.6,1-0.6h7
		c0.4,0,0.6,0.2,0.6,0.6v39.5c0,0.4-0.2,0.6-0.6,0.6h-6.8c-0.4,0-0.6-0.2-0.6-0.6v-22.9H773l-7.5,17.2c-0.2,0.5-0.6,0.8-1.1,0.8
		h-4.1c-0.5,0-0.9-0.2-1.1-0.8l-7.5-17.2h-0.2v22.9c0,0.4-0.2,0.6-0.6,0.6h-6.8c-0.4,0-0.6-0.2-0.6-0.6L743.3,114.6L743.3,114.6z"/>
	<path d="M787.5,114.6c0-0.4,0.2-0.6,0.6-0.6h7.6c0.4,0,0.6,0.2,0.6,0.6v39.5c0,0.4-0.2,0.6-0.6,0.6h-7.6c-0.4,0-0.6-0.2-0.6-0.6
		V114.6z"/>
	<path d="M802.7,114.6c0-0.4,0.2-0.6,0.6-0.6h7.2c0.4,0,0.8,0.2,1,0.6l14.4,25.6h0.3v-25.6c0-0.4,0.2-0.6,0.6-0.6h6.8
		c0.4,0,0.6,0.2,0.6,0.6v39.5c0,0.4-0.2,0.6-0.6,0.6h-7.1c-0.5,0-0.8-0.2-1-0.6l-14.4-25.6h-0.3v25.6c0,0.4-0.2,0.6-0.6,0.6h-6.8
		c-0.4,0-0.6-0.2-0.6-0.6V114.6z"/>
	<path d="M839.3,134.4c0-6,0.2-8.3,1.1-11.1c2.1-6.6,7.7-9.9,15-9.9c7.6,0,12.6,3.8,14.5,8.7c0.2,0.4,0.1,0.7-0.2,0.9l-6.4,2.7
		c-0.4,0.1-0.7,0-0.8-0.3c-1.6-2.8-3.6-4.2-7-4.2c-3.5,0-5.6,1.7-6.5,4.5c-0.5,1.4-0.7,3.3-0.7,8.7c0,5.3,0.2,7.3,0.7,8.7
		c0.9,2.8,3.1,4.5,6.6,4.5c3.1,0,5.7-1.5,6.5-4.2c0.3-1,0.5-2.3,0.5-4c0-0.2-0.1-0.4-0.4-0.4h-5.5c-0.4,0-0.6-0.2-0.6-0.6v-5.7
		c0-0.4,0.2-0.6,0.6-0.6h14c0.4,0,0.6,0.2,0.6,0.6v3.3c0,3.6-0.3,6.9-1,9.2c-2,6.5-7.7,10.2-14.8,10.2c-7.2,0-12.9-3.3-15-9.9
		C839.5,142.7,839.3,140.4,839.3,134.4z"/>
	<path d="M876.6,145.5c-0.9-2.8-1.1-5.1-1.1-11.1s0.2-8.3,1.1-11.1c2.1-6.6,7.7-9.9,14.8-9.9c7.1,0,12.7,3.3,14.8,9.9
		c0.9,2.8,1.1,5.1,1.1,11.1s-0.2,8.3-1.1,11.1c-2.1,6.6-7.7,9.9-14.8,9.9C884.3,155.4,878.7,152.1,876.6,145.5z M897.8,143.1
		c0.5-1.4,0.7-3.4,0.7-8.7c0-5.3-0.2-7.3-0.7-8.7c-0.9-2.8-3-4.5-6.4-4.5c-3.3,0-5.5,1.7-6.4,4.5c-0.5,1.4-0.7,3.4-0.7,8.7
		c0,5.3,0.2,7.3,0.7,8.7c0.9,2.8,3.1,4.5,6.4,4.5C894.8,147.6,896.9,146,897.8,143.1z"/>
</g>
<g>
	<path d="M501.6,53.6l-8,37h5.5l-0.3,1.5h-18.1l0.4-1.5h5.5l8-37h-5.5l0.4-1.5h18l-0.3,1.5H501.6z"/>
	<path d="M518.1,68.1l-1.5,6.5l0.1,0.1c3.4-4.6,6.8-6.8,10.4-6.8c1.3,0,2.4,0.4,3.3,1.2c0.9,0.8,1.3,1.8,1.3,3.1
		c0,0.5-0.2,1.5-0.5,2.8l-2.7,11.1c-0.3,1.2-0.4,2-0.4,2.6c0,1,0.3,1.5,1,1.5c1.8,0,3.6-2.2,5.4-6.5h1.4c-1.2,3.1-2.6,5.4-4.2,6.8
		s-3.3,2.2-5.1,2.2c-2.7,0-4.1-1.3-4.1-3.9c0-0.9,0.2-2.2,0.7-4l2.5-10c0-0.1,0.1-0.4,0.2-1c0.1-0.5,0.2-1.1,0.2-1.6
		c0-1.3-0.5-2-1.6-2c-1.2,0-2.8,1-5,3c-2.2,2-3.9,5.8-5.2,11.4l-1.8,7.5h-5.6l5.1-22h-5.1l0.3-1.5h4
		C513.9,68.6,516.2,68.4,518.1,68.1z"/>
	<path d="M545.6,72.5c0,0.7,0.3,1.3,0.8,1.9c0.5,0.6,1.8,1.5,3.9,2.6c2.1,1.1,3.6,2.3,4.6,3.4c1,1.2,1.4,2.5,1.4,4
		c0,2.4-1,4.4-3.1,6c-2,1.6-4.5,2.3-7.3,2.3c-2.2,0-4.1-0.5-5.5-1.5c-1.5-1-2.2-2.2-2.2-3.6c0-0.8,0.3-1.5,0.8-2
		c0.5-0.5,1.1-0.8,1.9-0.8c0.7,0,1.3,0.2,1.7,0.7c0.4,0.5,0.6,1,0.6,1.7c0,0.5-0.1,1-0.4,1.5c-0.2,0.5-0.4,0.9-0.4,1
		c0,1.1,1.2,1.7,3.7,1.7c1.9,0,3.4-0.4,4.5-1.2c1.1-0.8,1.7-1.8,1.7-2.8c0-1.7-1.6-3.3-4.7-4.8c-4-1.9-5.9-4.4-5.9-7.3
		c0-1.8,0.8-3.5,2.5-5.1c1.7-1.6,3.8-2.3,6.5-2.3c2,0,3.7,0.4,4.9,1.1c1.2,0.8,1.8,1.8,1.8,3.1c0,0.7-0.3,1.3-0.8,1.8
		c-0.5,0.5-1.1,0.7-1.7,0.7s-1.2-0.2-1.6-0.7s-0.6-1-0.6-1.7c0-0.3,0.1-0.6,0.2-1.1c0.1-0.4,0.2-0.8,0.2-1.1c0-0.6-0.8-0.9-2.4-0.9
		c-1.5,0-2.7,0.3-3.6,0.9C546,70.8,545.6,71.5,545.6,72.5z"/>
	<path d="M572.4,62l-1.4,6.6h3.9l-0.3,1.5h-3.9l-4,16.8c-0.3,1.3-0.5,2.1-0.5,2.7c0,0.8,0.3,1.2,1,1.2c1.6,0,3.3-2.4,5.3-7.2h1.2
		c-1,3-2.2,5.3-3.7,6.9c-1.5,1.6-3.1,2.3-4.9,2.3c-2.8,0-4.2-1.4-4.2-4.3c0-0.8,0.2-2.3,0.7-4.3l3.3-14.1H561l0.3-1.5h4l1.3-5.8
		C568.7,62.8,570.6,62.5,572.4,62z"/>
	<path d="M589.4,68L585,86.5c-0.3,1.5-0.5,2.5-0.5,2.9c0,0.7,0.4,1.1,1.1,1.1c0.9,0,2-0.7,3.2-2c1.2-1.3,2.4-3.3,3.5-5.9h1.3
		c-2.6,6.8-6.2,10.2-10.7,10.2c-2.6,0-3.9-1.4-3.9-4.1c0-0.8,0.1-1.7,0.4-2.7c0.2-0.9,0.4-1.7,0.6-2.3l3.3-13.6h-5.6l0.3-1.5h3.5
		C584.3,68.6,586.9,68.4,589.4,68z M585.9,55.6c0-0.9,0.3-1.7,1-2.3c0.7-0.6,1.4-1,2.3-1c0.9,0,1.7,0.3,2.3,1c0.6,0.6,1,1.4,1,2.3
		s-0.3,1.7-1,2.3c-0.7,0.6-1.4,1-2.3,1c-0.9,0-1.6-0.3-2.3-1S585.9,56.5,585.9,55.6z"/>
	<path d="M607.6,62l-1.4,6.6h3.9l-0.3,1.5h-3.9l-4,16.8c-0.3,1.3-0.5,2.1-0.5,2.7c0,0.8,0.3,1.2,1,1.2c1.6,0,3.3-2.4,5.3-7.2h1.2
		c-1,3-2.2,5.3-3.7,6.9c-1.5,1.6-3.1,2.3-4.9,2.3c-2.8,0-4.2-1.4-4.2-4.3c0-0.8,0.2-2.3,0.7-4.3l3.3-14.1h-3.9l0.3-1.5h4l1.3-5.8
		C603.8,62.8,605.7,62.5,607.6,62z"/>
	<path d="M638.8,68.6l-3.9,16.9c-0.1,0.1-0.2,0.6-0.4,1.4c-0.2,0.8-0.3,1.5-0.3,2.1c0,0.3,0.1,0.6,0.3,0.9s0.4,0.4,0.7,0.4
		c0.7,0,1.6-0.6,2.6-1.9s1.9-2.9,2.7-4.9h1.3c-1.2,3.1-2.5,5.5-4.1,7c-1.6,1.5-3.2,2.3-4.9,2.3c-1.3,0-2.2-0.5-2.9-1.4
		c-0.7-1-1-2.1-1-3.3c0-0.4,0.1-1,0.2-2l-0.1-0.1c-3.1,4.5-6.3,6.8-9.6,6.8c-1.4,0-2.7-0.5-3.7-1.4c-1.1-0.9-1.6-2.2-1.6-3.8
		c0-0.6,0.1-1.2,0.2-1.9c0.2-0.7,0.3-1.4,0.5-2.1l3.1-13.6h-4.7l0.4-1.3h5c1.5,0,2.7-0.1,3.7-0.2c0.9-0.1,1.5-0.2,1.8-0.2l-4,17.3
		c-0.4,1.5-0.6,2.6-0.6,3.4c0,1.2,0.6,1.8,1.7,1.8c1.2,0,2.8-0.9,4.8-2.8c2-1.9,3.6-4.9,4.6-9.3l2.4-10.2H638.8z"/>
	<path d="M656.1,62l-1.4,6.6h3.8l-0.3,1.5h-3.9l-4,16.8c-0.3,1.3-0.5,2.1-0.5,2.7c0,0.8,0.3,1.2,1,1.2c1.6,0,3.3-2.4,5.3-7.2h1.2
		c-1,3-2.2,5.3-3.7,6.9c-1.5,1.6-3.1,2.3-4.9,2.3c-2.8,0-4.2-1.4-4.2-4.3c0-0.8,0.2-2.3,0.7-4.3l3.3-14.1h-3.9l0.3-1.5h4l1.3-5.8
		C652.4,62.8,654.3,62.5,656.1,62z"/>
	<path d="M660.6,82.6c0-3.9,1.4-7.4,4.2-10.3c2.8-2.9,5.9-4.4,9.3-4.4c2.8,0,4.9,1,6.4,3s2.3,4.3,2.3,7.1c0,3.8-1.4,7.3-4.3,10.3
		c-2.8,3.1-5.9,4.6-9.2,4.6c-2.6,0-4.7-1-6.3-2.9C661.4,88,660.6,85.6,660.6,82.6z M677.3,72.9c0-1.1-0.3-2-0.9-2.7
		c-0.6-0.7-1.4-1-2.5-1c-1.6,0-2.8,0.7-3.5,2c-0.7,1.3-1.6,4-2.7,8c-1.1,4-1.6,6.9-1.6,8.8c0,1.2,0.3,2,1,2.6
		c0.6,0.6,1.4,0.9,2.3,0.9c2.5,0,4.4-2.7,5.8-8.1C676.6,77.9,677.3,74.5,677.3,72.9z"/>
	<path d="M733.5,52l-2.8,11.4h-1.5c0-3.9-0.9-6.7-2.6-8.4c-1.7-1.7-3.8-2.6-6.4-2.6c-2.6,0-4.7,0.8-6.3,2.3c-1.7,1.5-2.5,3-2.5,4.6
		c0,1.2,0.5,2.3,1.6,3.4c1,1.1,3.5,2.4,7.3,4.1c3.8,1.6,6.6,3.4,8.3,5.4c1.7,2,2.5,4.3,2.5,7.2c0,3.9-1.4,7.1-4.3,9.8s-6.2,4-10,4
		c-3.5,0-6.8-1.3-10.1-3.9c-1.6,1.1-2.9,2.1-3.9,3h-1.1l2.9-11.6h1.2c0.4,3.6,1.6,6.4,3.7,8.2c2,1.9,4.5,2.8,7.4,2.8
		c3,0,5.4-0.8,7.3-2.4c1.9-1.6,2.9-3.6,2.9-5.9c0-1.8-0.7-3.4-2-4.8c-1.3-1.4-3.9-2.9-7.7-4.6c-3.8-1.7-6.3-3.3-7.3-4.9
		c-1.1-1.5-1.6-3.4-1.6-5.6c0-3.7,1.2-6.6,3.6-8.9c2.4-2.2,5.3-3.4,8.8-3.4c3.8,0,6.7,1.3,8.7,4c1.3-1,2.2-2,2.8-3L733.5,52
		L733.5,52z"/>
	<path d="M761.9,68.6L758,85.6c-0.1,0.1-0.2,0.6-0.4,1.4c-0.2,0.8-0.3,1.5-0.3,2.1c0,0.3,0.1,0.6,0.3,0.9s0.4,0.4,0.7,0.4
		c0.7,0,1.6-0.6,2.6-1.9c1-1.2,1.9-2.9,2.7-4.9h1.3c-1.2,3.1-2.5,5.5-4.1,7c-1.6,1.5-3.2,2.3-4.9,2.3c-1.3,0-2.2-0.5-2.9-1.4
		c-0.6-1-1-2.1-1-3.3c0-0.4,0.1-1,0.2-2l-0.1-0.1c-3.1,4.5-6.3,6.8-9.6,6.8c-1.4,0-2.7-0.5-3.7-1.4c-1.1-0.9-1.6-2.2-1.6-3.8
		c0-0.6,0.1-1.2,0.2-1.9c0.2-0.7,0.3-1.4,0.5-2.1l3.1-13.6h-4.7l0.4-1.3h5c1.5,0,2.7-0.1,3.7-0.2c0.9-0.1,1.5-0.2,1.8-0.2l-4,17.3
		c-0.4,1.5-0.6,2.6-0.6,3.4c0,1.2,0.6,1.8,1.7,1.8c1.2,0,2.8-0.9,4.8-2.8c2-1.9,3.6-4.9,4.6-9.3l2.4-10.2H761.9z"/>
	<path d="M779.5,71.5c1.7-2.5,3.7-3.8,6-3.8c2.4,0,4.3,0.9,5.6,2.6c1.3,1.7,2,4,2,7c0,4.1-1.5,7.7-4.4,10.8c-3,3.1-5.9,4.7-8.8,4.7
		c-2.1,0-3.6-1.3-4.4-3.9h-0.1l-3.8,16.9h5.1l-0.3,1.5h-15.5l0.3-1.5h4.6l8.3-35.8h-5.4l0.4-1.5h3.6c3.4,0,6-0.2,7.6-0.5l-0.8,3.3
		L779.5,71.5z M779.7,91.3c1.3,0,2.4-0.6,3.3-1.8c0.9-1.2,1.9-4,3-8.4c1.1-4.4,1.6-7.3,1.6-8.7c0-2.1-0.9-3.2-2.6-3.2
		c-1.2,0-2.3,0.5-3.3,1.4s-1.7,1.8-2.2,2.6c-0.5,0.8-1.2,2.7-2.1,6c-0.9,3.2-1.3,5.4-1.3,6.6C776.2,89.5,777.4,91.3,779.7,91.3z"/>
	<path d="M804.5,81.8c-0.8,3.7-1.2,5.8-1.2,6.5c0,0.8,0.3,1.6,0.9,2.2c0.6,0.6,1.5,1,2.6,1c3.6,0,6.7-2.4,9.2-7.3h1.3
		c-1.3,2.9-3,5.1-4.9,6.5c-1.9,1.4-3.9,2.1-5.9,2.1c-2.5,0-4.5-1-6.1-3.1c-1.6-2-2.4-4.4-2.4-7.1c0-3.6,1.4-6.9,4.3-10.1
		c2.8-3.2,5.8-4.7,9-4.7c2.1,0,3.6,0.6,4.7,1.9c1.1,1.3,1.7,2.7,1.7,4.2c0,1.6-0.8,3.2-2.3,5C813.9,80.8,810.3,81.7,804.5,81.8z
		 M804.8,80.4c2.8-0.1,4.6-0.4,5.6-1.1c0.9-0.7,1.7-1.8,2.3-3.4c0.6-1.6,0.9-2.8,0.9-3.8c0-1.9-0.8-2.8-2.5-2.8
		c-1.6,0-2.8,0.7-3.6,2.1C806.5,72.8,805.7,75.8,804.8,80.4z"/>
	<path d="M831.5,68.2l-1.7,7.4l0.1,0.1c2.7-5.3,5.2-7.9,7.3-7.9c0.8,0,1.5,0.3,2.1,0.8c0.6,0.5,0.9,1.2,0.9,2c0,0.8-0.3,1.5-0.8,2
		c-0.5,0.5-1.3,0.8-2.1,0.8c-0.8,0-1.5-0.2-2-0.7c-0.5-0.5-0.8-0.7-1-0.7c-0.4,0-1.1,0.7-2.1,2.1c-1,1.4-1.7,2.7-2.2,4
		s-1.1,3.4-1.8,6.2l-1.9,8.2h-5.6l4.9-22.3H821l0.4-1.5h3.7C827.7,68.6,829.8,68.5,831.5,68.2z"/>
	<path d="M853.9,68l-4.5,18.4c-0.3,1.5-0.5,2.5-0.5,2.9c0,0.7,0.4,1.1,1.1,1.1c0.9,0,2-0.7,3.2-2c1.2-1.3,2.4-3.3,3.5-5.9h1.3
		c-2.6,6.8-6.2,10.2-10.7,10.2c-2.6,0-3.9-1.4-3.9-4.1c0-0.8,0.1-1.7,0.4-2.7c0.2-0.9,0.4-1.7,0.6-2.3l3.3-13.6H842l0.3-1.5h3.5
		C848.7,68.6,851.4,68.4,853.9,68z M850.3,55.6c0-0.9,0.3-1.7,1-2.3c0.7-0.6,1.4-1,2.3-1c0.9,0,1.7,0.3,2.3,1c0.6,0.6,1,1.4,1,2.3
		s-0.3,1.7-1,2.3s-1.4,1-2.3,1c-0.9,0-1.6-0.3-2.3-1S850.3,56.5,850.3,55.6z"/>
	<path d="M860.5,82.6c0-3.9,1.4-7.4,4.2-10.3c2.8-2.9,5.9-4.4,9.3-4.4c2.7,0,4.9,1,6.4,3c1.5,2,2.3,4.3,2.3,7.1
		c0,3.8-1.4,7.3-4.3,10.3c-2.8,3.1-5.9,4.6-9.2,4.6c-2.6,0-4.7-1-6.3-2.9C861.3,88,860.5,85.6,860.5,82.6z M877.1,72.9
		c0-1.1-0.3-2-0.9-2.7c-0.6-0.7-1.4-1-2.5-1c-1.6,0-2.8,0.7-3.5,2c-0.7,1.3-1.6,4-2.7,8c-1.1,4-1.6,6.9-1.6,8.8c0,1.2,0.3,2,1,2.6
		c0.6,0.6,1.4,0.9,2.3,0.9c2.5,0,4.4-2.7,5.8-8.1C876.4,77.9,877.1,74.5,877.1,72.9z"/>
	<path d="M897.3,68.2l-1.7,7.4l0.1,0.1c2.7-5.3,5.2-7.9,7.3-7.9c0.8,0,1.5,0.3,2.1,0.8s0.9,1.2,0.9,2c0,0.8-0.3,1.5-0.8,2
		c-0.5,0.5-1.2,0.8-2.1,0.8c-0.8,0-1.4-0.2-2-0.7c-0.5-0.5-0.8-0.7-1-0.7c-0.4,0-1.1,0.7-2.1,2.1c-1,1.4-1.7,2.7-2.2,4
		c-0.5,1.3-1.1,3.4-1.7,6.2l-1.9,8.2h-5.6l4.9-22.3h-4.6l0.4-1.5h3.7C893.5,68.6,895.6,68.5,897.3,68.2z"/>
</g>
<path d="M199.8,148.2c-0.7-0.7-1.1-2-0.2-3l13.8-15.3c0.7-0.9,1.8-0.9,2.7-0.2c8.2,6.3,19.3,12.3,32.4,12.3
	c12.9,0,20.2-5.8,20.2-14.3c0-7-4.4-11.4-19.1-13.4l-6.5-0.9C218,110.1,204,98.7,204,77.6c0-22,17.1-36.6,43.8-36.6
	c16.4,0,31.6,4.8,42,12.5c1.1,0.7,1.3,1.4,0.4,2.6l-11.1,16c-0.7,0.9-1.6,1.1-2.6,0.5c-9.4-6-18.5-9.1-28.7-9.1
	c-10.9,0-16.5,5.5-16.5,13c0,6.9,5.1,11.3,19.2,13.2l6.6,0.9c25.4,3.3,38.9,14.6,38.9,36.3c0,21.7-16.5,37.7-48.6,37.7
	C228.2,164.6,209.5,157.2,199.8,148.2"/>
<path d="M309.5,42.8c0-1.1,0.7-1.8,1.8-1.8h46c21.6,0,36.7,9.3,42.7,27.8c2.2,6.9,3.3,13.8,3.3,34c0,20.2-1.1,27.1-3.3,34
	c-6,18.6-21.1,27.8-42.7,27.8h-46c-1.1,0-1.8-0.7-1.8-1.8L309.5,42.8L309.5,42.8z M337.3,140.8h14c12.4,0,19.8-3.6,22.9-13.6
	c1.3-3.6,2-8.4,2-24.3c0-16-0.7-20.7-2-24.4c-3.1-10-10.5-13.6-22.9-13.6h-14c-0.7,0-1.1,0.4-1.1,1.1v73.8
	C336.2,140.4,336.6,140.8,337.3,140.8"/>
<polygon points="60.2,160 60.2,45.2 41.1,45.2 41.1,40.5 100.4,40.5 100.4,45.2 81,45.2 81,160 100.4,160 100.4,164.7 41.1,164.7 
	41.1,160 "/>
<path d="M183.3,41.9l0.5,31h-4.1C173.9,54.3,163.6,45,148.9,45c-8.2,0-14.5,2.3-19,6.9c-4.5,4.6-6.8,9.4-6.8,14.3
	c0,4.6,1.9,8.5,5.6,11.7c3.8,3.2,10.6,5.7,20.6,7.4c10,1.8,17.5,3.9,22.8,6.4s9.6,6.7,13.2,12.6c3.6,5.9,5.4,12.6,5.4,20.2
	c0,11.7-3.7,21.4-11.2,29.2c-7.5,7.8-16.8,11.7-27.8,11.7c-9,0-18-3.4-27-10.2l-8.2,7.5h-3.1v-33.4h3.7c3.4,10.5,8.2,18.4,14.4,23.7
	c6.2,5.3,12.9,7.9,20.3,7.9c7.3,0,14-2.5,20-7.4c6.1-4.9,9.1-11.1,9.1-18.6c0-6.3-2.1-11.6-6.3-15.9c-4.2-4.3-11.1-7.3-20.5-8.9
	c-9.5-1.6-16.7-3.5-21.8-5.7c-5.1-2.2-9.4-5.9-13-11.3c-3.6-5.4-5.4-11.3-5.4-17.9c0-9,3.1-17.1,9.4-24.2
	c6.3-7.1,14.8-10.6,25.6-10.6c9,0,17.4,2.9,25.2,8.7c2.2-2.1,4-4.5,5.6-7.3L183.3,41.9L183.3,41.9z"/>
<g>
	<g>
		<path class="st0" d="M444.4,206.1H199.1v-4.7h240.5v-158c0-21.4-17.4-38.7-38.7-38.7H4.7v159.7H0V0h400.9
			c24,0,43.5,19.5,43.5,43.4L444.4,206.1L444.4,206.1z"/>
	</g>
</g>
</svg>
