<?xml version="1.0" encoding="UTF-8"?>
<!DOCTYPE svg PUBLIC "-//W3C//DTD SVG 1.1//EN" "http://www.w3.org/Graphics/SVG/1.1/DTD/svg11.dtd">
<svg xmlns="http://www.w3.org/2000/svg" version="1.1" width="256px" height="256px" style="shape-rendering:geometricPrecision; text-rendering:geometricPrecision; image-rendering:optimizeQuality; fill-rule:evenodd; clip-rule:evenodd" xmlns:xlink="http://www.w3.org/1999/xlink">
<g><path style="opacity:0.902" fill="#000000" d="M 30.5,45.5 C 33.6907,46.0922 36.6907,47.2589 39.5,49C 58.0029,60.0858 76.6696,70.9192 95.5,81.5C 116.295,69.8666 136.962,58.0332 157.5,46C 162.327,47.1611 166.827,49.3278 171,52.5C 171.667,81.5 171.667,110.5 171,139.5C 153.5,149.667 136,159.833 118.5,170C 131.771,178.219 145.271,186.052 159,193.5C 176.07,183.714 193.236,174.047 210.5,164.5C 211.333,148.51 211.833,132.51 212,116.5C 215.416,114.208 218.916,112.041 222.5,110C 218.581,108.46 215.081,106.293 212,103.5C 211.333,99.1667 211.333,94.8333 212,90.5C 215.483,87.8557 219.316,85.8557 223.5,84.5C 227.44,85.8035 231.107,87.6369 234.5,90C 235.632,94.4132 235.799,98.9132 235,103.5C 231.919,106.293 228.419,108.46 224.5,110C 228.084,112.041 231.584,114.208 235,116.5C 235.667,136.5 235.667,156.5 235,176.5C 209.814,191.426 184.481,206.093 159,220.5C 134.101,206.3 109.268,191.967 84.5,177.5C 83.3384,172.869 83.1717,168.202 84,163.5C 104.671,150.662 125.671,138.329 147,126.5C 147.667,110.5 147.667,94.5 147,78.5C 129.915,88.6262 112.749,98.6262 95.5,108.5C 78.2514,98.6262 61.0847,88.6262 44,78.5C 43.6667,98.5 43.3333,118.5 43,138.5C 39.25,140.959 35.4166,143.292 31.5,145.5C 27.5834,143.292 23.75,140.959 20,138.5C 19.3333,109.833 19.3333,81.1667 20,52.5C 23.6515,50.2673 27.1515,47.934 30.5,45.5 Z"/></g>
</svg>
