<?xml version="1.0" encoding="UTF-8"?>
<!DOCTYPE svg PUBLIC "-//W3C//DTD SVG 1.1//EN" "http://www.w3.org/Graphics/SVG/1.1/DTD/svg11.dtd">
<svg xmlns="http://www.w3.org/2000/svg" version="1.1" width="256px" height="256px" style="shape-rendering:geometricPrecision; text-rendering:geometricPrecision; image-rendering:optimizeQuality; fill-rule:evenodd; clip-rule:evenodd" xmlns:xlink="http://www.w3.org/1999/xlink">
<g><path style="opacity:0.935" fill="#000000" d="M 121.5,-0.5 C 125.5,-0.5 129.5,-0.5 133.5,-0.5C 165.072,17.6258 196.739,35.7925 228.5,54C 235.256,57.0885 239.423,62.2552 241,69.5C 241.667,108.167 241.667,146.833 241,185.5C 239.941,188.618 238.608,191.618 237,194.5C 202.849,215.49 168.349,235.823 133.5,255.5C 129.5,255.5 125.5,255.5 121.5,255.5C 108.366,248.432 95.699,240.599 83.5,232C 83.6448,231.228 83.9781,230.561 84.5,230C 90.0748,227.629 95.5748,225.129 101,222.5C 108.417,227.126 115.917,231.626 123.5,236C 125.365,237.301 127.365,237.635 129.5,237C 160.913,219.212 192.079,201.045 223,182.5C 223.667,145.833 223.667,109.167 223,72.5C 191.537,53.5188 159.704,35.1855 127.5,17.5C 95.2959,35.1855 63.4626,53.5188 32,72.5C 31.3333,109.167 31.3333,145.833 32,182.5C 41.7911,188.979 51.9578,194.813 62.5,200C 72.0331,202.489 77.8665,198.989 80,189.5C 80.3333,153.167 80.6667,116.833 81,80.5C 86.6667,79.1667 92.3333,79.1667 98,80.5C 98.6667,118.5 98.6667,156.5 98,194.5C 95.8806,211.114 86.3806,219.447 69.5,219.5C 56.4863,217.159 44.4863,212.326 33.5,205C 28.0739,201.871 22.9072,198.371 18,194.5C 15.8899,191.508 14.5566,188.175 14,184.5C 13.3333,146.167 13.3333,107.833 14,69.5C 15.5771,62.2552 19.7438,57.0885 26.5,54C 58.2615,35.7925 89.9281,17.6258 121.5,-0.5 Z"/></g>
<g><path style="opacity:0.942" fill="#000000" d="M 143.5,72.5 C 161.394,70.3712 178.394,73.2046 194.5,81C 203.739,88.4781 208.739,98.1448 209.5,110C 208.833,111 208.167,112 207.5,113C 201.5,113.667 195.5,113.667 189.5,113C 187.57,102.072 181.237,95.4049 170.5,93C 159.004,90.8698 147.671,91.5365 136.5,95C 130.397,98.0404 128.231,102.874 130,109.5C 130.93,111.552 132.43,113.052 134.5,114C 153.459,117.852 172.459,121.518 191.5,125C 211.216,132.438 217.716,146.271 211,166.5C 203.638,180.112 192.138,187.612 176.5,189C 163.117,191.019 149.783,190.686 136.5,188C 115.406,183.59 104.573,170.756 104,149.5C 107.064,148.217 110.397,147.55 114,147.5C 117.167,147.667 120.333,147.833 123.5,148C 124.645,153.069 126.478,157.903 129,162.5C 132.521,165.844 136.688,168.011 141.5,169C 153.504,170.971 165.504,170.971 177.5,169C 187.331,167.179 191.831,161.346 191,151.5C 189.437,148.272 186.937,146.105 183.5,145C 166.616,141.419 149.616,138.419 132.5,136C 111.166,130.512 103.332,117.012 109,95.5C 111.716,88.1188 116.549,82.6188 123.5,79C 129.992,75.8906 136.658,73.724 143.5,72.5 Z"/></g>
</svg>
