<?xml version="1.0" encoding="UTF-8"?>
<!DOCTYPE svg PUBLIC "-//W3C//DTD SVG 1.1//EN" "http://www.w3.org/Graphics/SVG/1.1/DTD/svg11.dtd">
<svg xmlns="http://www.w3.org/2000/svg" version="1.1" width="256px" height="256px" style="shape-rendering:geometricPrecision; text-rendering:geometricPrecision; image-rendering:optimizeQuality; fill-rule:evenodd; clip-rule:evenodd" xmlns:xlink="http://www.w3.org/1999/xlink">
<g><path style="opacity:0.978" fill="#000000" d="M 109.5,-0.5 C 121.833,-0.5 134.167,-0.5 146.5,-0.5C 154.983,0.591694 163.316,2.75836 171.5,6C 178.781,9.94818 183.947,15.7815 187,23.5C 188.129,36.6138 188.629,49.7805 188.5,63C 188.333,74.8333 188.167,86.6667 188,98.5C 185.086,112.413 176.586,120.58 162.5,123C 138.833,123.333 115.167,123.667 91.5,124C 76.3773,127.122 66.2106,135.956 61,150.5C 59.5777,163.439 59.0777,176.439 59.5,189.5C 51.16,189.666 42.8267,189.5 34.5,189C 22.5406,187.603 14.0406,181.437 9,170.5C -2.61549,140.992 -2.28216,111.659 10,82.5C 16.0525,72.5507 24.8859,66.7174 36.5,65C 66.4981,64.5 96.4981,64.3334 126.5,64.5C 126.5,62.1667 126.5,59.8333 126.5,57.5C 106.257,57.8265 86.0908,57.4932 66,56.5C 65.2413,45.1346 65.5746,33.8012 67,22.5C 68.2136,14.2885 72.7136,8.78848 80.5,6C 90.1234,3.00729 99.7901,0.840625 109.5,-0.5 Z M 91.5,18.5 C 103.204,20.5744 106.371,26.9078 101,37.5C 95.2052,42.4931 89.5385,42.1598 84,36.5C 80.2373,27.7076 82.7373,21.7076 91.5,18.5 Z"/></g>
<g><path style="opacity:0.979" fill="#000000" d="M 140.5,255.5 C 131.5,255.5 122.5,255.5 113.5,255.5C 98.0571,253.294 84.2238,247.294 72,237.5C 70.0797,234.661 68.4131,231.661 67,228.5C 65.3861,205.542 65.0528,182.542 66,159.5C 67.7074,144.458 75.8741,134.958 90.5,131C 113.833,130.667 137.167,130.333 160.5,130C 177.483,127.351 188.65,117.851 194,101.5C 195.394,89.2196 195.894,76.8863 195.5,64.5C 205.506,64.3335 215.506,64.5002 225.5,65C 236.614,68.1139 243.781,75.2805 247,86.5C 258.449,117.308 256.782,147.308 242,176.5C 237.365,183.568 230.865,187.735 222.5,189C 190.835,189.5 159.168,189.667 127.5,189.5C 127.5,191.833 127.5,194.167 127.5,196.5C 147.833,196.5 168.167,196.5 188.5,196.5C 188.666,206.506 188.5,216.506 188,226.5C 184.255,236.579 177.422,243.746 167.5,248C 158.598,251.306 149.598,253.806 140.5,255.5 Z M 159.5,212.5 C 168.803,212.635 172.97,217.301 172,226.5C 168.776,234.346 163.276,236.513 155.5,233C 148.209,224.393 149.542,217.56 159.5,212.5 Z"/></g>
</svg>
