<?xml version="1.0" encoding="UTF-8"?>
<!DOCTYPE svg PUBLIC "-//W3C//DTD SVG 1.1//EN" "http://www.w3.org/Graphics/SVG/1.1/DTD/svg11.dtd">
<svg xmlns="http://www.w3.org/2000/svg" version="1.1" width="256px" height="256px" style="shape-rendering:geometricPrecision; text-rendering:geometricPrecision; image-rendering:optimizeQuality; fill-rule:evenodd; clip-rule:evenodd" xmlns:xlink="http://www.w3.org/1999/xlink">
<g><path style="opacity:0.863" fill="#000000" d="M 255.5,119.5 C 255.5,124.833 255.5,130.167 255.5,135.5C 251.847,142.663 246.847,148.83 240.5,154C 228.83,161.834 216.163,167.501 202.5,171C 207.674,187.281 208.508,203.781 205,220.5C 199.166,238.339 186.999,245.172 168.5,241C 152.856,235.183 139.19,226.35 127.5,214.5C 117.233,224.636 105.566,232.803 92.5,239C 66.2699,247.301 51.4365,237.801 48,210.5C 47.2355,197.046 48.7355,183.88 52.5,171C 35.4132,166.708 20.2465,158.874 7,147.5C 4.20983,143.572 1.70983,139.572 -0.5,135.5C -0.5,130.167 -0.5,124.833 -0.5,119.5C 5.47347,107.307 14.8068,98.4735 27.5,93C 35.5396,89.2088 43.8729,86.2088 52.5,84C 47.2814,67.3868 46.4481,50.5535 50,33.5C 57.5706,14.1833 71.2373,8.18334 91,15.5C 104.626,21.7274 116.792,30.0608 127.5,40.5C 137.767,30.3636 149.434,22.1969 162.5,16C 185.052,7.38545 199.552,14.5521 206,37.5C 208.257,53.2701 207.091,68.7701 202.5,84C 220.355,87.8912 235.855,96.0578 249,108.5C 251.461,112.096 253.627,115.763 255.5,119.5 Z M 71.5,25.5 C 82.594,25.1421 92.594,28.3088 101.5,35C 108.147,39.3248 113.647,44.4915 118,50.5C 110.976,58.8534 103.976,67.1867 97,75.5C 86.8017,76.9332 76.6351,78.5999 66.5,80.5C 65.5581,80.3918 64.7247,80.0585 64,79.5C 60.8261,67.0113 59.8261,54.3447 61,41.5C 61.7927,34.2131 65.2927,28.8798 71.5,25.5 Z M 172.5,25.5 C 183.005,23.4949 189.838,27.4949 193,37.5C 195.445,51.8848 194.612,66.0514 190.5,80C 179.698,78.6282 168.864,77.1282 158,75.5C 150.669,66.999 143.502,58.3323 136.5,49.5C 146.913,38.9713 158.913,30.9713 172.5,25.5 Z M 126.5,59.5 C 129.056,60.5434 131.223,62.2101 133,64.5C 135.5,67.6667 138,70.8333 140.5,74C 131.833,74.6667 123.167,74.6667 114.5,74C 118.712,69.2932 122.712,64.4599 126.5,59.5 Z M 123.5,86.5 C 132.492,87.0522 141.492,87.5522 150.5,88C 159.164,100.519 166.831,113.685 173.5,127.5C 166.831,141.315 159.164,154.481 150.5,167C 135.167,167.667 119.833,167.667 104.5,167C 96.2023,154.243 88.5357,141.077 81.5,127.5C 88.169,113.685 95.8356,100.519 104.5,88C 111.013,87.8279 117.347,87.3279 123.5,86.5 Z M 84.5,89.5 C 85.8734,89.3433 87.2068,89.51 88.5,90C 83.6023,97.2379 79.1023,104.738 75,112.5C 72.299,106.062 69.799,99.5616 67.5,93C 73.3633,92.1281 79.03,90.9615 84.5,89.5 Z M 166.5,90.5 C 166.917,89.8761 167.584,89.5427 168.5,89.5C 174.82,90.7307 181.154,91.8974 187.5,93C 185.201,99.5616 182.701,106.062 180,112.5C 176.033,104.731 171.533,97.3972 166.5,90.5 Z M 52.5,96.5 C 53.8221,96.33 54.9887,96.6634 56,97.5C 59.5589,107.616 63.3922,117.616 67.5,127.5C 63.3907,138.037 59.0573,148.37 54.5,158.5C 39.5186,154.761 26.352,147.761 15,137.5C 9.03226,127.431 10.8656,118.931 20.5,112C 30.5853,105.456 41.2519,100.29 52.5,96.5 Z M 199.5,96.5 C 212.137,99.4853 223.803,104.652 234.5,112C 247.253,124.146 246.253,135.146 231.5,145C 221.727,150.759 211.393,155.259 200.5,158.5C 195.943,148.37 191.609,138.037 187.5,127.5C 191.79,117.257 195.79,106.924 199.5,96.5 Z M 74.5,142.5 C 78.9075,150.093 83.5742,157.593 88.5,165C 81.8724,164.287 75.2057,163.453 68.5,162.5C 69.8945,155.65 71.8945,148.983 74.5,142.5 Z M 179.5,142.5 C 183.002,148.669 185.335,155.335 186.5,162.5C 179.794,163.453 173.128,164.287 166.5,165C 171.46,157.871 175.793,150.371 179.5,142.5 Z M 64.5,174.5 C 75.4316,176.419 86.4316,177.919 97.5,179C 104.121,187.956 111.121,196.623 118.5,205C 107.295,218.055 93.295,226.222 76.5,229.5C 69.8999,229.619 65.3999,226.619 63,220.5C 59.4758,205.033 59.9758,189.7 64.5,174.5 Z M 185.5,174.5 C 187.467,174.261 189.301,174.594 191,175.5C 194.631,189.377 195.297,203.377 193,217.5C 191.239,225.598 186.239,229.598 178,229.5C 161.479,225.999 147.646,217.832 136.5,205C 143.879,196.623 150.879,187.956 157.5,179C 167.11,178.368 176.444,176.868 185.5,174.5 Z M 114.5,181.5 C 122.99,180.343 131.657,180.176 140.5,181C 136.323,186.008 131.99,190.841 127.5,195.5C 123.145,190.813 118.812,186.146 114.5,181.5 Z"/></g>
<g><path style="opacity:0.918" fill="#000000" d="M 124.5,103.5 C 144.733,104.894 153.233,115.56 150,135.5C 141.632,151.244 129.465,155.077 113.5,147C 100.167,134 100.167,121 113.5,108C 117.053,105.879 120.72,104.379 124.5,103.5 Z"/></g>
</svg>
