<?xml version="1.0" encoding="UTF-8"?>
<!DOCTYPE svg PUBLIC "-//W3C//DTD SVG 1.1//EN" "http://www.w3.org/Graphics/SVG/1.1/DTD/svg11.dtd">
<svg xmlns="http://www.w3.org/2000/svg" version="1.1" width="256px" height="256px" style="shape-rendering:geometricPrecision; text-rendering:geometricPrecision; image-rendering:optimizeQuality; fill-rule:evenodd; clip-rule:evenodd" xmlns:xlink="http://www.w3.org/1999/xlink">
<g><path style="opacity:0.985" fill="#000000" d="M -0.5,-0.5 C 84.8333,-0.5 170.167,-0.5 255.5,-0.5C 255.5,84.8333 255.5,170.167 255.5,255.5C 170.167,255.5 84.8333,255.5 -0.5,255.5C -0.5,170.167 -0.5,84.8333 -0.5,-0.5 Z M 185.5,117.5 C 203.084,114.136 216.751,119.802 226.5,134.5C 221.167,138.167 215.833,141.833 210.5,145.5C 205.294,137.404 197.961,134.571 188.5,137C 182.891,140.277 181.058,145.11 183,151.5C 183.707,153.081 184.54,154.581 185.5,156C 197.255,161.809 208.922,167.809 220.5,174C 235.116,186.851 237.949,202.017 229,219.5C 217.382,231.593 203.216,236.093 186.5,233C 171.991,230.807 160.991,223.474 153.5,211C 159.25,207.374 165.084,203.874 171,200.5C 180.256,214.188 192.423,217.688 207.5,211C 214.269,204.044 213.936,197.377 206.5,191C 194.395,185.781 182.728,179.781 171.5,173C 159.105,159.901 157.272,145.401 166,129.5C 171.253,123.298 177.753,119.298 185.5,117.5 Z M 56.5,118.5 C 85.8333,118.5 115.167,118.5 144.5,118.5C 144.5,124.833 144.5,131.167 144.5,137.5C 133.5,137.5 122.5,137.5 111.5,137.5C 111.5,169.167 111.5,200.833 111.5,232.5C 104.167,232.5 96.8333,232.5 89.5,232.5C 89.5,200.833 89.5,169.167 89.5,137.5C 78.5,137.5 67.5,137.5 56.5,137.5C 56.5,131.167 56.5,124.833 56.5,118.5 Z"/></g>
</svg>
